<?xml version="1.0" encoding="UTF-8"?>
<svg id="a" data-name="Expanded" xmlns="http://www.w3.org/2000/svg" viewBox="0 0 24 24">
  <defs>
    <style>
      .b {
        fill: none;
      }

      .c {
        fill: #1b2e1a;
      }
    </style>
  </defs>
  <path class="c" d="M13.7158,2.2979c-.0649-.1987-.2212-.354-.4204-.417-.1987-.064-.4165-.0269-.5845.0972L3.5562,8.7661c-1.5068,1.1177-2.1274,3.0669-1.5439,4.8501.403,1.2317,1.3219,2.1758,2.4666,2.6528l1.3518,4.4946c.3247,1.1104,1.3438,1.833,2.4468,1.833.2358,0,.4761-.0332.7134-.1025.6533-.1914,1.1929-.625,1.52-1.2217.3267-.5967.4019-1.2852.209-1.9453l-.8182-2.6912,7.6199.0418h.0034c.2075,0,.4028-.0996.5254-.2676.123-.1689.1572-.3867.0923-.585L13.7158,2.2979ZM9.4736,19.6992c.1929.6602-.187,1.3545-.8472,1.5469-.6641.1953-1.355-.1875-1.5493-.8525l-1.1412-3.7944c.0636.0031.1249.0157.1891.0161l2.415.0132.9337,3.0707ZM6.1318,15.3145c-1.3159-.0068-2.4751-.8516-2.8843-2.1025s.0264-2.6177,1.083-3.4019L12.7607,3.5591l3.8657,11.813-10.4946-.0576ZM21.6275,5.2461l-3.2361,2.3777-.8217-.9194,2.7251-2.9496,1.3327,1.4913ZM22.8925,9.5663l-.5659,1.9183-3.7787-1.5146.3489-1.1826,3.9957.779Z"/>
  <rect class="b" width="24" height="24"/>
</svg>