<?xml version="1.0" encoding="UTF-8"?>
<svg id="a" data-name="Expanded" xmlns="http://www.w3.org/2000/svg" viewBox="0 0 24 24">
  <defs>
    <style>
      .b {
        fill: none;
      }

      .c {
        fill: #1b2e1a;
      }
    </style>
  </defs>
  <path class="c" d="M17.5,4.3501h-.8496v-1.0557c0-.3589-.291-.6499-.6504-.6499s-.6504.291-.6504.6499v1.0557h-6.6992v-1.0557c0-.3589-.291-.6499-.6504-.6499s-.6504.291-.6504.6499v1.0557h-.8496c-1.7373,0-3.1504,1.4131-3.1504,3.1499v11c0,1.7368,1.4131,3.1499,3.1504,3.1499h11c1.7373,0,3.1504-1.4131,3.1504-3.1499V7.5c0-1.7368-1.4131-3.1499-3.1504-3.1499ZM19.3496,18.5c0,1.02-.8291,1.8501-1.8496,1.8501H6.5c-1.0205,0-1.8496-.8301-1.8496-1.8501V7.5c0-1.02.8291-1.8501,1.8496-1.8501h.8496v1.0557c0,.3589.291.6499.6504.6499s.6504-.291.6504-.6499v-1.0557h6.6992v1.0557c0,.3589.291.6499.6504.6499s.6504-.291.6504-.6499v-1.0557h.8496c1.0205,0,1.8496.8301,1.8496,1.8501v11ZM15.7471,10.5405c.2539.2539.2539.6655,0,.9189l-4.6084,4.6074c-.127.127-.2939.1904-.46.1904s-.333-.0635-.46-.1904l-1.9658-1.9658c-.2539-.2539-.2539-.665,0-.9189s.666-.2539.9199,0l1.5059,1.5059,4.1484-4.1475c.2539-.2539.666-.2539.9199,0Z"/>
  <rect class="b" width="24" height="24"/>
</svg>