<?xml version="1.0" encoding="UTF-8"?>
<svg id="a" data-name="Expanded" xmlns="http://www.w3.org/2000/svg" viewBox="0 0 24 24">
  <defs>
    <style>
      .b {
        fill: none;
      }

      .c {
        fill: #1b2e1a;
      }
    </style>
  </defs>
  <path class="c" d="M23.5811,14.8979v2.0249c0,.3589-.291.6499-.6504.6499s-.6504-.291-.6504-.6499v-2.0249c0-1.5884-1.4863-2.8809-3.3145-2.8809-.5654,0-1.1211.1274-1.6084.3682-.3242.1597-.7129.0254-.8711-.2949-.1592-.3223-.0264-.7119.2949-.8711.665-.3281,1.4209-.502,2.1846-.502,2.5449,0,4.6152,1.8755,4.6152,4.1807ZM16.8438,6.6138c0-1.6343,1.3301-2.9639,2.9648-2.9639,1.6338,0,2.9639,1.3296,2.9639,2.9639s-1.3301,2.9644-2.9639,2.9644c-1.6348,0-2.9648-1.3296-2.9648-2.9644ZM18.1445,6.6138c0,.918.7461,1.6646,1.6641,1.6646.917,0,1.6631-.7466,1.6631-1.6646,0-.9175-.7461-1.6641-1.6631-1.6641-.918,0-1.6641.7466-1.6641,1.6641ZM7.5137,12.0903c.1592-.3223.0264-.7119-.2949-.8711-.665-.3281-1.4209-.502-2.1846-.502-2.5449,0-4.6152,1.8755-4.6152,4.1807v2.0249c0,.3589.291.6499.6504.6499s.6504-.291.6504-.6499v-2.0249c0-1.5884,1.4863-2.8809,3.3145-2.8809.5654,0,1.1211.1274,1.6084.3682.3223.1572.7119.0259.8711-.2949ZM1.2275,6.6138c0-1.6343,1.3301-2.9639,2.9639-2.9639,1.6348,0,2.9648,1.3296,2.9648,2.9639s-1.3301,2.9644-2.9648,2.9644c-1.6338,0-2.9639-1.3296-2.9639-2.9644ZM2.5283,6.6138c0,.918.7461,1.6646,1.6631,1.6646.918,0,1.6641-.7466,1.6641-1.6646,0-.9175-.7461-1.6641-1.6641-1.6641-.917,0-1.6631.7466-1.6631,1.6641ZM8.6895,7.96c0-1.8252,1.4854-3.3101,3.3105-3.3101s3.3105,1.4849,3.3105,3.3101-1.4854,3.3096-3.3105,3.3096-3.3105-1.4844-3.3105-3.3096ZM9.9902,7.96c0,1.1079.9014,2.0098,2.0098,2.0098s2.0098-.9019,2.0098-2.0098-.9014-2.0103-2.0098-2.0103-2.0098.9019-2.0098,2.0103ZM14.3184,12.4375c-.0713-.0273-.1191-.043-.2324-.042h-.0029c-.1426.001-.2754.0483-.3828.1284l-.001.0005s-.001.0005-.001.0005c-.0234.0176-.0459.0366-.0664.0576q-.001.0005-.001.001h-.001c-.0234.0239-.0449.0493-.0654.0762l-1.5645,2.0669-1.5693-2.0732c-.1104-.1455-.2842-.2373-.4658-.2549h-.002c-.0186-.002-.0371-.0029-.0566-.0029h-.0049c-.0977,0-.1895.0215-.2715.0596-2.4795.8682-4.1406,3.0312-4.1406,5.4058v2.939c0,.3589.291.6499.6504.6499s.6504-.291.6504-.6499v-2.939c0-1.7319,1.123-3.2749,2.8975-4.0347l1.7939,2.3696c.2461.3252.791.3252,1.0371,0l1.7939-2.3696c1.7744.7598,2.8975,2.3027,2.8975,4.0347v2.939c0,.3589.291.6499.6504.6499s.6504-.291.6504-.6499v-2.939c0-2.3911-1.6836-4.5674-4.1924-5.4233Z"/>
  <rect class="b" width="24" height="24"/>
</svg>