<?xml version="1.0" encoding="UTF-8"?>
<svg id="a" data-name="Expanded" xmlns="http://www.w3.org/2000/svg" viewBox="0 0 24 24">
  <defs>
    <style>
      .b {
        fill: none;
      }

      .c {
        fill: #1b2e1a;
      }
    </style>
  </defs>
  <path class="c" d="M20.9189,18.7251c-2.2889-1.928-5.2465-2.9467-8.2497-3.0801l.0148-2.5635,5.9092-4.1587c.3599-.2534.5747-.667.5747-1.1069,0-.4404-.2148-.854-.5747-1.1074l-5.1104-3.5967c-.4155-.2925-.9531-.3286-1.4028-.0942-.4502.2339-.73.6938-.73,1.2012v11.4255c-3.0098.1297-5.9752,1.1487-8.269,3.0809-.2744.2314-.3096.6411-.0781.916.231.2739.6406.3091.916.0781,2.0629-1.7374,4.7251-2.6598,7.4312-2.7886v2.0693c0,.0137.007.0252.0078.0388-1.0159.1122-1.7656.4784-1.7656.9177,0,.5283,1.0779.9565,2.4077.9565s2.4077-.4282,2.4077-.9565c0-.4393-.7498-.8055-1.7656-.9177.0009-.0135.0078-.025.0078-.0388l.012-2.0689c2.702.1309,5.3593,1.0533,7.4192,2.7881.1221.1025.271.1528.4185.1528.1851,0,.3691-.0786.4976-.231.2314-.2749.1963-.6846-.0781-.916ZM12.7349,4.1753l5.1104,3.6841-5.1523,3.626.042-7.3101Z"/>
  <rect class="b" width="24" height="24"/>
</svg>