<?xml version="1.0" encoding="UTF-8"?>
<svg id="a" data-name="Expanded" xmlns="http://www.w3.org/2000/svg" viewBox="0 0 24 24">
  <defs>
    <style>
      .b {
        fill: none;
      }

      .c {
        fill: #1b2e1a;
      }
    </style>
  </defs>
  <path class="c" d="M22.3518,20.6499c-.3579,0-.6482-.291-.6482-.6499v-2.8027c0-2.3364-2.1652-4.2373-4.8262-4.2373-.8177,0-1.6237.1851-2.3313.5352-.32.1587-.7096.0264-.8683-.2954-.1583-.3218-.0263-.7114.2946-.8706.8849-.4375,1.8896-.6689,2.905-.6689,3.3759,0,6.1226,2.4839,6.1226,5.5371v2.8027c0,.3589-.2903.6499-.6482.6499ZM20.154,6.6035c0-1.9316-1.5672-3.5034-3.4937-3.5034s-3.4942,1.5718-3.4942,3.5034,1.5677,3.5034,3.4942,3.5034,3.4937-1.5718,3.4937-3.5034ZM18.8576,6.6035c0,1.2148-.9857,2.2036-2.1973,2.2036s-2.1978-.9888-2.1978-2.2036.9862-2.2036,2.1978-2.2036,2.1973.9888,2.1973,2.2036ZM10.8398,6.6035c0-1.9316-1.5686-3.5034-3.4963-3.5034s-3.4958,1.5718-3.4958,3.5034,1.5681,3.5034,3.4958,3.5034,3.4963-1.5718,3.4963-3.5034ZM9.5426,6.6035c0,1.2148-.9868,2.2036-2.1991,2.2036s-2.1986-.9888-2.1986-2.2036.9863-2.2036,2.1986-2.2036,2.1991.9888,2.1991,2.2036ZM13.6875,20v-2.8979c0-2.3599-1.6387-4.5088-4.081-5.355-.0736-.0283-.1715-.042-.2358-.043h-.0024c-.1384.001-.2675.0459-.3733.1221t-.001.0005s-.0005,0-.0005.0005c-.0297.021-.0575.0449-.0833.0713,0,.0005-.0005.0005-.0005.001,0,0-.0005,0-.0005.0005-.0219.022-.0419.0459-.0604.0713l-1.5052,2.0171-1.5101-2.0234c-.1092-.1465-.2821-.2393-.4634-.2573-.02-.0024-.0404-.0034-.0614-.0034h-.0024c-.1077.001-.192.0215-.2748.0601-2.4145.8579-4.0313,2.9941-4.0313,5.3379v2.8979c0,.3589.2904.6499.6486.6499s.6486-.291.6486-.6499v-2.8979c0-1.6997,1.0813-3.2139,2.7922-3.9639l1.7347,2.3247c.2446.3281.7943.3281,1.0389,0l1.7347-2.3247c1.7109.75,2.7926,2.2642,2.7926,3.9639v2.8979c0,.3589.2904.6499.6486.6499s.6486-.291.6486-.6499Z"/>
  <rect class="b" width="24" height="24"/>
</svg>