<?xml version="1.0" encoding="UTF-8"?>
<svg id="a" data-name="Expanded" xmlns="http://www.w3.org/2000/svg" viewBox="0 0 24 24">
  <defs>
    <style>
      .b {
        fill: none;
      }

      .c {
        fill: #1b2e1a;
      }
    </style>
  </defs>
  <path class="c" d="M12,22.0342c-.0991,0-.1987-.0225-.2905-.0684-.2202-.1104-.3594-.3354-.3594-.5815v-2.5215c0-.2246-.1831-.4077-.4077-.4077h-.9199c-4.4404,0-8.0527-3.6123-8.0527-8.0522,0-2.1396.8369-4.1611,2.3564-5.6929,1.5225-1.5225,3.5449-2.3599,5.6963-2.3599h3.6377c2.2842,0,4.5117.9492,6.1133,2.6045,1.5225,1.5752,2.3232,3.6064,2.252,5.7202-.0674,2.0347-.9023,3.9595-2.3525,5.4204-1.291,1.3105-7.0386,5.626-7.2827,5.8091-.1147.0859-.252.1299-.3901.1299ZM10.0225,3.6499c-1.8042,0-3.5.7026-4.7754,1.9775-1.2744,1.2847-1.9775,2.981-1.9775,4.7754,0,3.7231,3.0293,6.7524,6.7529,6.7524h.9199c.9414,0,1.7075.7661,1.7075,1.7075v1.2148c1.7534-1.332,5.1929-3.9766,6.0991-4.8965,1.2197-1.229,1.9209-2.8438,1.9775-4.5493.0586-1.7588-.6123-3.4541-1.8877-4.7734-1.3574-1.4033-3.2451-2.2085-5.1787-2.2085h-3.6377ZM14.3643,9c0-.3589-.291-.6499-.6504-.6499h-5.7139c-.3589,0-.6499.291-.6499.6499s.291.6499.6499.6499h5.7139c.3594,0,.6504-.291.6504-.6499ZM16.6504,12.4287c0-.3589-.291-.6499-.6504-.6499h-5.7144c-.3589,0-.6499.291-.6499.6499s.291.6499.6499.6499h5.7144c.3594,0,.6504-.291.6504-.6499Z"/>
  <rect class="b" width="24" height="24"/>
</svg>