<?xml version="1.0" encoding="UTF-8"?>
<svg id="a" data-name="Expanded" xmlns="http://www.w3.org/2000/svg" viewBox="0 0 24 24">
  <defs>
    <style>
      .b {
        fill: none;
      }

      .c {
        fill: #1b2e1a;
      }
    </style>
  </defs>
  <path class="c" d="M17,10.6499c-2.0127,0-3.6504-1.6372-3.6504-3.6499s1.6377-3.6499,3.6504-3.6499,3.6504,1.6372,3.6504,3.6499-1.6377,3.6499-3.6504,3.6499ZM17,4.6499c-1.2959,0-2.3496,1.0542-2.3496,2.3501s1.0537,2.3501,2.3496,2.3501,2.3496-1.0542,2.3496-2.3501-1.0537-2.3501-2.3496-2.3501ZM7,10.6499c-2.0127,0-3.6504-1.6372-3.6504-3.6499s1.6377-3.6499,3.6504-3.6499,3.6504,1.6372,3.6504,3.6499-1.6377,3.6499-3.6504,3.6499ZM7,4.6499c-1.2959,0-2.3496,1.0542-2.3496,2.3501s1.0537,2.3501,2.3496,2.3501,2.3496-1.0542,2.3496-2.3501-1.0537-2.3501-2.3496-2.3501ZM17,20.6499c-2.0127,0-3.6504-1.6372-3.6504-3.6499s1.6377-3.6499,3.6504-3.6499,3.6504,1.6372,3.6504,3.6499-1.6377,3.6499-3.6504,3.6499ZM17,14.6499c-1.2959,0-2.3496,1.0542-2.3496,2.3501s1.0537,2.3501,2.3496,2.3501,2.3496-1.0542,2.3496-2.3501-1.0537-2.3501-2.3496-2.3501ZM7,20.6499c-2.0127,0-3.6504-1.6372-3.6504-3.6499s1.6377-3.6499,3.6504-3.6499,3.6504,1.6372,3.6504,3.6499-1.6377,3.6499-3.6504,3.6499ZM7,14.6499c-1.2959,0-2.3496,1.0542-2.3496,2.3501s1.0537,2.3501,2.3496,2.3501,2.3496-1.0542,2.3496-2.3501-1.0537-2.3501-2.3496-2.3501Z"/>
  <rect class="b" width="24" height="24"/>
</svg>