<?xml version="1.0" encoding="UTF-8"?>
<svg id="a" data-name="Expanded" xmlns="http://www.w3.org/2000/svg" viewBox="0 0 24 24">
  <defs>
    <style>
      .b {
        fill: none;
      }

      .c {
        fill: #1b2e1a;
      }
    </style>
  </defs>
  <path class="c" d="M13,10.2998c2.0952,0,3.7998-1.7046,3.7998-3.7998s-1.7046-3.7998-3.7998-3.7998-3.7998,1.7046-3.7998,3.7998,1.7046,3.7998,3.7998,3.7998ZM13,4c1.3784,0,2.5,1.1216,2.5,2.5s-1.1216,2.5-2.5,2.5-2.5-1.1216-2.5-2.5,1.1216-2.5,2.5-2.5ZM15.8291,12.9062l-2.2871,3.4526c-.1235.1865-.3101.2798-.5571.291-.2231-.0054-.4282-.1245-.5425-.3164l-2.0688-3.4585c-.6968.1577-1.9854.2935-3.3931-.3262-1.6299-.7178-2.9302-2.2148-3.8701-4.4551l-1.4414.3965c.02.3647.0596.8579.1382,1.2251.3174,1.4844,1.146,3.5181,3.2896,4.7754,1.1123.6519,1.8032,1.8555,1.8032,3.1411v3.1807c0,.3589-.291.6499-.6499.6499s-.6499-.291-.6499-.6499v-3.1807c0-.8262-.4448-1.6001-1.1606-2.02-2.687-1.5752-3.5991-4.2002-3.9038-5.625-.167-.7822-.1851-1.9292-.1855-1.9775-.0044-.2964.1924-.5576.4775-.6362l2.5-.6875c.3257-.0889.6631.0845.7812.3994.8208,2.1958,1.9556,3.6304,3.373,4.2642,1.5479.6909,2.9385.1646,2.9531.1592.2944-.1167.6343-.0024.7974.2705l1.7954,3.002,2.0054-3.0273c.1631-.2471.4717-.3545.7529-.2559,1.6152.5542,2.9824,1.5996,3.8501,2.9434.1948.3013.1084.7036-.1934.8984-.3008.1938-.7041.1089-.8984-.1934-.6265-.9702-1.5791-1.7529-2.7153-2.2397ZM23.1499,20c0,.3589-.291.6499-.6499.6499h-1.8501v1.8501c0,.3589-.291.6499-.6499.6499s-.6499-.291-.6499-.6499v-1.8501h-1.8501c-.3589,0-.6499-.291-.6499-.6499s.291-.6499.6499-.6499h1.8501v-1.8501c0-.3589.291-.6499.6499-.6499s.6499.291.6499.6499v1.8501h1.8501c.3589,0,.6499.291.6499.6499Z"/>
  <rect class="b" width="24" height="24"/>
</svg>