<?xml version="1.0" encoding="UTF-8"?>
<svg id="a" data-name="Expanded" xmlns="http://www.w3.org/2000/svg" viewBox="0 0 24 24">
  <defs>
    <style>
      .b {
        fill: none;
      }

      .c {
        fill: #1b2e1a;
      }
    </style>
  </defs>
  <path class="c" d="M17.5,4.3501h-.8501v-1.0557c0-.3589-.291-.6499-.6499-.6499s-.6499.291-.6499.6499v1.0557h-6.7002v-1.0557c0-.3589-.291-.6499-.6499-.6499s-.6499.291-.6499.6499v1.0557h-.8501c-1.7368,0-3.1499,1.4131-3.1499,3.1499v11c0,1.7368,1.4131,3.1499,3.1499,3.1499h11c1.7368,0,3.1499-1.4131,3.1499-3.1499V7.5c0-1.7368-1.4131-3.1499-3.1499-3.1499ZM19.3501,18.5c0,1.02-.8301,1.8501-1.8501,1.8501H6.5c-1.02,0-1.8501-.8301-1.8501-1.8501V7.5c0-1.02.8301-1.8501,1.8501-1.8501h.8501v1.0557c0,.3589.291.6499.6499.6499s.6499-.291.6499-.6499v-1.0557h6.7002v1.0557c0,.3589.291.6499.6499.6499s.6499-.291.6499-.6499v-1.0557h.8501c1.02,0,1.8501.8301,1.8501,1.8501v11ZM17,15v2c0,.5522-.4477,1-1,1h-2c-.5523,0-1-.4478-1-1v-2c0-.5523.4477-1,1-1h2c.5523,0,1,.4477,1,1Z"/>
  <rect class="b" width="24" height="24"/>
</svg>