<?xml version="1.0" encoding="UTF-8"?>
<svg id="a" data-name="Expanded" xmlns="http://www.w3.org/2000/svg" viewBox="0 0 24 24">
  <defs>
    <style>
      .b {
        fill: none;
      }

      .c {
        fill: #1b2e1a;
      }
    </style>
  </defs>
  <path class="c" d="M23.6504,16.3398c0-1.5132-.9492-2.8872-2.4473-3.4443l-.5971-.1348-2.5408-8.1108h.4348c.3594,0,.6504-.291.6504-.6499s-.291-.6499-.6504-.6499H5c-.3589,0-.6499.291-.6499.6499s.291.6499.6499.6499h.3501v4.7002h-1.3501v-2.1725c.0056-.378-.2477-.7151-.636-.8582l-.7092-.2554c-.3771-.1328-.7992-.0562-1.0862.2043-.2251.1992-.4502.4597-.5459.7969-.0957.2708.1238.5414.4333.5721l1.2442.1774v1.5657c-.7666.1418-1.3501.8126-1.3501,1.6196v3.9718c-.6182.6594-1,1.5349-1,2.4877v1.5835c0,.3589.291.6499.6499.6499h1.3696c.1019,1.6456,1.4597,2.957,3.1304,2.957,1.6855,0,3.0546-1.334,3.1348-3h8.73c.0801,1.666,1.4493,3,3.1353,3,1.7373,0,3.1504-1.4131,3.1504-3.1499,0-.1141-.0218-.2222-.0337-.3333.0148-.0544.0337-.1076.0337-.1667v-2.6602ZM22.3496,16.3398v.6227c-.5208-.3806-1.1565-.6124-1.8496-.6124-1.3306,0-2.4647.8317-2.9258,2h-.4238v-5.0381l3.6807.8262c.9082.3418,1.5186,1.2266,1.5186,2.2017ZM16.7032,4.6499l2.4371,7.78-2.3133-.5222-1.3671-1.3671c-.0144-.0144-.0334-.0197-.0488-.0324l.7041-.7044c.2539-.2539.2539-.6655,0-.9194-.2539-.2529-.666-.2534-.9199.0005l-2.3101,2.3115c-.2539.2539-.2539.6655,0,.9194.1265.1265.2935.1899.4595.1899s.333-.0635.46-.1904l.7035-.7037c.0126.0151.0177.0338.0319.048l1.3096,1.3096v5.5811h-4.1997v-2.3501c0-1.4614-1.1885-2.6499-2.6499-2.6499h-2.3501V4.6499h10.0533ZM3,10.6499h2.3501v2.8174l-2.0659.4131c-.2202.0441-.4315.1093-.6343.1904v-3.0707c0-.1929.1572-.3501.3501-.3501ZM2.5577,18.4047c-.02-.0018-.0372-.0117-.0577-.0117h-.8501v-.9336c0-1.1162.7944-2.0854,1.8892-2.3047l2.5254-.5049h2.9355c.7446,0,1.3501.6055,1.3501,1.3501v2.3501h-1.9248c-.4611-1.1683-1.5951-2-2.9253-2-1.3502,0-2.4952.8584-2.9423,2.0546ZM5.5,21.3501c-1.02,0-1.8501-.8301-1.8501-1.8501s.8301-1.8501,1.8501-1.8501,1.8501.8301,1.8501,1.8501-.8301,1.8501-1.8501,1.8501ZM20.5,21.3501c-1.0205,0-1.8496-.8301-1.8496-1.8501s.8291-1.8501,1.8496-1.8501,1.8496.8301,1.8496,1.8501-.8291,1.8501-1.8496,1.8501Z"/>
  <rect class="b" width="24" height="24"/>
</svg>