<?xml version="1.0" encoding="UTF-8"?>
<svg id="a" data-name="Expanded" xmlns="http://www.w3.org/2000/svg" viewBox="0 0 24 24">
  <defs>
    <style>
      .b {
        fill: none;
      }

      .c {
        fill: #1b2e1a;
      }
    </style>
  </defs>
  <path class="c" d="M18,11.3501c-2.2197,0-4.0254,1.8057-4.0254,4.0249,0,1.3398.8867,2.4346,1.8252,3.5933.5879.7256,1.1953,1.4751,1.6191,2.3223.1094.2202.335.3594.5811.3594s.4717-.1392.5811-.3594c.4072-.814.9932-1.4878,1.5586-2.1396.9268-1.0674,1.8857-2.1704,1.8857-3.7759,0-2.2192-1.8057-4.0249-4.0254-4.0249ZM19.1582,18.2983c-.375.4316-.7812.8999-1.1514,1.4307-.3828-.5742-.8066-1.0972-1.1963-1.5791-.8242-1.0171-1.5352-1.8955-1.5352-2.7749,0-1.5024,1.2217-2.7251,2.7246-2.7251s2.7246,1.2227,2.7246,2.7251c0,1.1196-.6904,1.9155-1.5664,2.9233ZM9.3916,9.4658c2.0957,0,3.8008-1.7046,3.8008-3.7998s-1.7051-3.7998-3.8008-3.7998-3.7998,1.7046-3.7998,3.7998,1.7051,3.7998,3.7998,3.7998ZM9.3916,3.166c1.3789,0,2.5,1.1216,2.5,2.5s-1.1211,2.5-2.5,2.5c-1.3779,0-2.499-1.1216-2.499-2.5s1.1211-2.5,2.499-2.5ZM13.5811,11.4194c.2988.1997.3789.6035.1787.9019-.1982.2988-.6006.3799-.9014.1792-.1582-.106-.3252-.2114-.5-.2998-.1494-.0815-.3027-.1558-.4639-.2256l-1.9844,2.6543c-.123.1641-.3154.2607-.5205.2607s-.3984-.0967-.5205-.2607l-1.9844-2.6558c-1.9805.8511-3.2344,2.5894-3.2344,4.5361v2.77c0,.3589-.291.6499-.6504.6499s-.6504-.291-.6504-.6499v-2.77c0-2.6494,1.7852-4.9785,4.5479-5.9341.2695-.0903.5645-.0015.7334.2251l1.7588,2.3535,1.7598-2.3535c.1709-.2275.4688-.3188.7373-.2236.4023.1421.7539.2969,1.0752.4727.2041.1016.418.2354.6191.3696ZM19,15.5c0,.5522-.4477,1-1,1s-1-.4478-1-1,.4477-1,1-1,1,.4477,1,1Z"/>
  <rect class="b" width="24" height="24"/>
</svg>